<?xml version="1.0" encoding="UTF-8"?>
<svg width="45px" height="40px" viewBox="0 0 45 40" version="1.1" xmlns="http://www.w3.org/2000/svg" xmlns:xlink="http://www.w3.org/1999/xlink">
    <title>编组 5</title>
    <g id="机务管理系统" stroke="none" stroke-width="1" fill="none" fill-rule="evenodd">
        <g id="画板" transform="translate(-665.000000, -309.000000)" fill-rule="nonzero" fill="#3D568E">
            <g id="编组-5" transform="translate(665.197914, 309.816003)">
                <path d="M43.6042226,31.5480367 L0.0001718752,31.5480367 L0.0001718752,5.45600635 L40.3482188,5.45600635 C42.1522209,5.45600635 43.6042226,6.90800804 43.6042226,8.71201014 L43.6042226,31.5480367 L43.6042226,31.5480367 Z M27.2580317,5.45600635 C27.2580317,2.44200284 24.8160289,-1.95399252e-14 21.8020254,-1.95399252e-14 L-7.10542736e-15,-1.95399252e-14 L-7.10542736e-15,5.45600635 L27.2580317,5.45600635" id="形状" fill="#2F5EAA"></path>
                <polygon id="路径" fill="#FFFFFF" points="5.45609229 24.2880283 5.45609229 7.94200924 38.1701304 7.94200924 38.1701304 24.2880283"></polygon>
                <path d="M43.6040507,35.0020407 L43.6040507,13.8380161 C43.6040507,12.3420144 42.3720493,11.1100129 40.8760476,11.1100129 L2.72800317,11.1100129 C1.23200143,11.1100129 -3.55271368e-14,12.3420144 -3.55271368e-14,13.8380161 L-3.55271368e-14,35.0020407 C-3.55271368e-14,36.8500429 1.49600174,38.3680446 3.36600392,38.3680446 L40.2600468,38.3680446 C42.108049,38.3680446 43.6040507,36.8720429 43.6040507,35.0020407 Z" id="路径" fill="#4181E9"></path>
            </g>
        </g>
    </g>
</svg>